<svg width="24" height="24" viewBox="0 0 24 24" fill="none" xmlns="http://www.w3.org/2000/svg">
<mask id="mask0_5483_38088" style="mask-type:alpha" maskUnits="userSpaceOnUse" x="2" y="2" width="20" height="20">
<path fill-rule="evenodd" clip-rule="evenodd" d="M11.9952 3.89834L10.1035 2.00662L8.11004 4.00006L10.5116 6.40166V9.39294L7.88593 7.87698L7.7099 7.22003L7.70452 7.22147L7.00968 4.6283L4.28659 5.35795L4.98143 7.95112L2.39731 8.64354L3.12696 11.3666L6.40761 10.4876L9.02507 11.9988L6.40821 13.5096L3.12662 12.6303L2.39697 15.3534L4.9811 16.0458L4.28626 18.639L7.00934 19.3686L7.70418 16.7755L7.70956 16.7769L7.88534 16.1209L10.5116 14.6046V17.5952L8.10935 19.9974L10.1028 21.9909L11.9945 20.0992L13.8928 21.9975L15.8863 20.0041L13.9879 18.1057L13.9919 18.1018L13.5116 17.6216V14.5891L16.1015 16.0843L16.9808 19.3659L19.7038 18.6363L19.0114 16.0521L21.6046 15.3573L20.875 12.6342L18.2818 13.3291L18.2803 13.3237L17.6243 13.4994L15.0251 11.9988L17.6237 10.4984L18.2807 10.6745L18.2821 10.6691L20.8753 11.3639L21.605 8.64083L19.0118 7.94599L19.7042 5.36187L16.9811 4.63222L16.1021 7.91287L13.5116 9.40845V6.37663L13.9926 5.89571L13.9886 5.89177L15.887 3.99344L13.8935 2L11.9952 3.89834Z" fill="url(#paint0_linear_5483_38088)"/>
</mask>
<g mask="url(#mask0_5483_38088)">
<path d="M0 0H24V24H0V0Z" fill="#126DF7"/>
</g>
<defs>
<linearGradient id="paint0_linear_5483_38088" x1="15.0005" y1="2" x2="6.50049" y2="19.5" gradientUnits="userSpaceOnUse">
<stop/>
<stop offset="1" stop-opacity="0.65"/>
</linearGradient>
</defs>
</svg>
